<svg xmlns="http://www.w3.org/2000/svg" xmlns:xlink="http://www.w3.org/1999/xlink" version="1.1" x="0px" y="0px" viewBox="0 0 100 125" enable-background="new 0 0 100 100" xml:space="preserve"><path d="M94.998,50.077L94.98,49.8c-0.017-0.265-0.033-0.528-0.043-0.795c-0.012-0.36-0.048-0.682-0.108-0.984  c0,0-4.008-10.085-4.242-11.255c-0.073-0.366-0.171-0.781-0.295-0.781H90.15h-80c-0.043,0-0.088,0.005-0.147,0  c-0.133,0-0.246,0.206-0.327,0.594c0,0-4.507,11.408-4.543,11.655c-0.054,0.377-0.097,0.78-0.13,1.222  c-0.04,0.551,0.192,13.703,0.192,13.703v0.855c0,0,0.603-0.01,0.743,0c0.123,0.01,0.245-0.004,0.367,0c0.165,0.005,0.33,0,0.495,0  h87.689c0.029,0,0.392,0,0.392,0v-1.064C94.883,62.948,95.018,50.415,94.998,50.077z M93.729,50.074l0.017,0.264  c0.007,0.12,0.004,0.18-0.001,0.226c0,0,0,0.064-0.001,0.174H6.252c0-0.016-0.001-0.03-0.002-0.033  c-0.044-0.208-0.035-0.433,0.003-0.959c0.007-0.099,0.021-0.19,0.03-0.289h87.414C93.708,49.662,93.718,49.869,93.729,50.074z   M49.851,58.142H6.33c-0.008-0.79-0.016-1.614-0.023-2.415h43.544V58.142z M10.772,37.313c0.019-0.09,0.041,0.028,0.068,0  c0.046,0.004,0.092,0,0.139,0l39.578,0.077v10.852H6.463l0.048-0.226C6.632,47.431,10.772,37.313,10.772,37.313z M50.558,62.799  V51.951H93.74c-0.011,3.152-0.038,10.611-0.062,10.848H50.558z"/><path d="M86.662,59.521c-1.282,0-2.322-1.04-2.322-2.322c0-1.284,1.04-2.323,2.322-2.323c1.284,0,2.323,1.039,2.323,2.323  C88.985,58.481,87.946,59.521,86.662,59.521z M87.999,57.199c0-0.738-0.599-1.337-1.336-1.337c-0.738,0-1.337,0.599-1.337,1.337  c0,0.737,0.599,1.336,1.337,1.336C87.4,58.535,87.999,57.937,87.999,57.199z"/><rect x="10.78" y="56.536" width="35.101" height="0.873"/><text x="0" y="115" fill="#000000" font-size="5px" font-weight="bold" font-family="'Helvetica Neue', Helvetica, Arial-Unicode, Arial, Sans-serif">Created by Ervin Bolat</text><text x="0" y="120" fill="#000000" font-size="5px" font-weight="bold" font-family="'Helvetica Neue', Helvetica, Arial-Unicode, Arial, Sans-serif">from the Noun Project</text></svg>