<?xml version="1.0" encoding="utf-8"?>
<!-- Generator: Adobe Illustrator 22.1.0, SVG Export Plug-In . SVG Version: 6.00 Build 0)  -->
<svg version="1.1" id="Layer_1" xmlns="http://www.w3.org/2000/svg" xmlns:xlink="http://www.w3.org/1999/xlink" x="0px" y="0px"
	 viewBox="0 0 100 125" style="enable-background:new 0 0 100 125;" xml:space="preserve">
<g>
	<path d="M64.1,39.5c-1.5,0-2.7,1.2-2.7,2.7s1.2,2.7,2.7,2.7c1.5,0,2.7-1.2,2.7-2.7C66.8,40.7,65.6,39.5,64.1,39.5z M64.1,43.7
		c-0.8,0-1.5-0.7-1.5-1.5c0-0.8,0.7-1.5,1.5-1.5c0.8,0,1.5,0.7,1.5,1.5C65.6,43,65,43.7,64.1,43.7z"/>
	<path d="M55.8,45c1.2,0,2.2-1,2.2-2.2s-1-2.2-2.2-2.2c-1.2,0-2.2,1-2.2,2.2C53.7,44,54.6,45,55.8,45z M55.8,41.9c0.5,0,1,0.4,1,1
		s-0.4,1-1,1s-1-0.4-1-1S55.3,41.9,55.8,41.9z"/>
	<path d="M45.3,40.7c-1.2,0-2.2,1-2.2,2.2s1,2.2,2.2,2.2s2.2-1,2.2-2.2C47.5,41.6,46.5,40.7,45.3,40.7z M45.3,43.8c-0.5,0-1-0.4-1-1
		s0.4-1,1-1s1,0.4,1,1S45.8,43.8,45.3,43.8z"/>
	<path d="M73.6,39.5c-1.5,0-2.7,1.2-2.7,2.7s1.2,2.7,2.7,2.7c1.5,0,2.7-1.2,2.7-2.7C76.2,40.7,75,39.5,73.6,39.5z M73.6,43.7
		c-0.8,0-1.5-0.7-1.5-1.5c0-0.8,0.7-1.5,1.5-1.5c0.8,0,1.5,0.7,1.5,1.5C75,43,74.4,43.7,73.6,43.7z"/>
	<path d="M68.8,40.5c1.5,0,2.7-1.2,2.7-2.7c0-1.5-1.2-2.7-2.7-2.7c-1.5,0-2.7,1.2-2.7,2.7C66.2,39.3,67.4,40.5,68.8,40.5z
		 M68.8,36.3c0.8,0,1.5,0.7,1.5,1.5c0,0.8-0.7,1.5-1.5,1.5c-0.8,0-1.5-0.7-1.5-1.5C67.4,37,68,36.3,68.8,36.3z"/>
	<path d="M68.8,43.9c-1.5,0-2.7,1.2-2.7,2.7s1.2,2.7,2.7,2.7c1.5,0,2.7-1.2,2.7-2.7S70.3,43.9,68.8,43.9z M68.8,48.1
		c-0.8,0-1.5-0.7-1.5-1.5s0.7-1.5,1.5-1.5c0.8,0,1.5,0.7,1.5,1.5S69.7,48.1,68.8,48.1z"/>
	<path d="M59.7,48.6c-2.3,0-4.2,1.9-4.2,4.2c0,2.3,1.9,4.2,4.2,4.2s4.2-1.9,4.2-4.2C63.9,50.5,62.1,48.6,59.7,48.6z M59.7,55.8
		c-1.6,0-3-1.3-3-3c0-1.6,1.3-3,3-3c1.6,0,3,1.3,3,3C62.7,54.5,61.4,55.8,59.7,55.8z"/>
	<path d="M59.7,46.6c-3.4,0-6.2,2.8-6.2,6.2c0,3.4,2.8,6.2,6.2,6.2c3.4,0,6.2-2.8,6.2-6.2C66,49.4,63.2,46.6,59.7,46.6z M59.7,57.9
		c-2.8,0-5-2.3-5-5s2.3-5,5-5s5,2.3,5,5S62.5,57.9,59.7,57.9z"/>
	<path d="M32.5,38c-2.3,0-4.2,1.9-4.2,4.2s1.9,4.2,4.2,4.2s4.2-1.9,4.2-4.2S34.8,38,32.5,38z M32.5,45.2c-1.6,0-3-1.3-3-3s1.3-3,3-3
		c1.6,0,3,1.3,3,3S34.2,45.2,32.5,45.2z"/>
	<path d="M50.4,37.7c1.7,0,3.1-1.4,3.1-3.1s-1.4-3.1-3.1-3.1c-1.7,0-3.1,1.4-3.1,3.1C47.3,36.3,48.7,37.7,50.4,37.7z M50.4,32.7
		c1.1,0,1.9,0.9,1.9,1.9s-0.9,1.9-1.9,1.9c-1.1,0-1.9-0.9-1.9-1.9S49.4,32.7,50.4,32.7z"/>
	<path d="M38.7,42.2c0-3.4-2.8-6.2-6.2-6.2c-3.4,0-6.2,2.8-6.2,6.2s2.8,6.2,6.2,6.2C35.9,48.4,38.7,45.6,38.7,42.2z M32.5,47.2
		c-2.8,0-5-2.3-5-5c0-2.8,2.3-5,5-5s5,2.3,5,5C37.5,45,35.3,47.2,32.5,47.2z"/>
	<path d="M46.3,51h-2.7v-2.7c0-0.3-0.3-0.6-0.6-0.6h-3.1c-0.3,0-0.6,0.3-0.6,0.6V51h-2.7c-0.3,0-0.6,0.3-0.6,0.6v3.1
		c0,0.3,0.3,0.6,0.6,0.6h2.7V58c0,0.3,0.3,0.6,0.6,0.6h3.1c0.3,0,0.6-0.3,0.6-0.6v-2.7h2.7c0.3,0,0.6-0.3,0.6-0.6v-3.1
		C46.9,51.3,46.6,51,46.3,51z M45.7,54.1h-2.7c-0.3,0-0.6,0.3-0.6,0.6v2.7h-1.9v-2.7c0-0.3-0.3-0.6-0.6-0.6h-2.7v-1.9h2.7
		c0.3,0,0.6-0.3,0.6-0.6v-2.7h1.9v2.7c0,0.3,0.3,0.6,0.6,0.6h2.7V54.1z"/>
	<path d="M86.9,62.4c-1.7-13.3-8.9-28-9.2-28.6c-0.1-0.3-0.3-0.5-0.6-0.6l-1.1-0.5l-0.3-1.3c0-0.1-0.1-0.2-0.1-0.3
		c-0.1-0.1-0.8-1.4-2.9-2.2c-1.9-0.7-6.6-2.5-9.5-2.5c-1,0-1.8,0.2-2.3,0.6c-0.4,0.2-2.2,1-3.8,1H43.4c-1.6,0-3.4-0.8-3.8-1
		c-0.6-0.4-1.3-0.6-2.3-0.6c-2.9,0-7.6,1.7-9.5,2.5c-2.1,0.8-2.8,2.1-2.9,2.2c0,0.1-0.1,0.2-0.1,0.3l-0.3,1.3l-0.8,0.5
		c-0.2,0.1-0.4,0.3-0.5,0.5c-0.3,0.6-7.4,15.2-9.2,28.6c-0.6,5,0.1,8.7,2.1,11c2,2.3,4.7,2.5,5.7,2.5c0.1,0,0.2,0,0.3,0
		c0.2,0.1,0.4,0.1,0.5,0.1h0c1.5,0,3.6-1.4,10.6-8.9c0.7-0.7,1.2-1.3,1.5-1.6c1-1,3.2-1.4,4.7-1.4c0.1,0,0.2,0,0.2,0c0,0,0,0,0,0
		h21.5c0,0,0,0,0,0c0,0,0.1,0,0.2,0c1.5,0,3.7,0.4,4.7,1.4c0.3,0.3,0.9,0.9,1.5,1.6c7,7.5,9.1,8.9,10.6,8.9c0.2,0,0.4,0,0.5-0.1
		c0.1,0,0.2,0,0.3,0c1.1,0,3.7-0.2,5.7-2.5C86.9,71.2,87.6,67.4,86.9,62.4z M62.1,29.3c0.1,0,0.1-0.1,0.2-0.1c0,0,0.2-0.1,0.9-0.1
		c2.6,0,7.3,1.8,8.7,2.3c1,0.4,1.4,0.8,1.6,1l0.2,0.6c-8.4-3.8-11.2-1-11.4-0.8c0,0,0,0,0,0.1c0,0-0.1,0.1-0.3,0.4L60.5,30
		C61.4,29.7,62.1,29.3,62.1,29.3z M57.1,30.7c0.7,0,1.5-0.1,2.2-0.3l1.7,3.2c-0.6,0.6-1.4,1.5-2.4,2.6c-2.1,2.1-2.9,2.3-3,2.3
		c0,0,0,0,0,0H45.3c0,0,0,0,0,0c-0.1,0-1-0.2-3-2.3c-1.1-1.1-2-2-2.5-2.7l1.7-3.1c0.6,0.1,1.3,0.3,2,0.3L57.1,30.7L57.1,30.7z
		 M28.6,31.3c1.4-0.5,6.1-2.3,8.7-2.3c0.7,0,0.9,0.1,0.9,0.1c0.1,0.1,0.1,0.1,0.2,0.1c0.1,0,0.8,0.4,1.8,0.8l-1.3,2.4
		c-0.2-0.2-0.2-0.3-0.2-0.3c0,0,0,0,0-0.1c-0.1-0.1-3.1-3.1-11.8,1l0.2-0.8C27.2,32.2,27.6,31.7,28.6,31.3z M83,71.9
		c-1.3,1.5-3.2,1.7-3.9,1.7c-0.2,0-0.3,0-0.3,0l0,0c-0.2,0-0.4,0-0.6,0.1c-1.6-0.4-7-6.2-8.8-8.2c-0.7-0.8-1.2-1.3-1.6-1.7
		c-1.9-1.9-5.1-2.1-6.4-2.1c-0.1,0-0.2,0-0.2,0H39.7c0,0-0.1,0-0.2,0c-1.3,0-4.5,0.2-6.4,2.1c-0.4,0.4-0.9,1-1.6,1.7
		c-1.8,1.9-7.2,7.8-8.8,8.2c-0.1-0.1-0.3-0.1-0.4-0.1c0,0-0.1,0-0.1,0c0,0-0.1,0-0.4,0c-0.7,0-2.6-0.2-3.9-1.7
		c-1.5-1.8-2.1-4.9-1.5-9.1c1.5-11.6,7.4-24.5,8.7-27.3c9.2-5.1,12.5-2.7,12.7-2.5c0.2,0.3,1.2,1.6,3.7,4c2.4,2.4,3.5,2.7,4,2.7
		h10.2c0,0,0,0,0.1,0c0.5,0,1.6-0.4,3.9-2.7c2.4-2.4,3.5-3.8,3.7-4c0.3-0.2,3.2-2.4,11.2,1.7c0.1,0.1,0.2,0.1,0.2,0.1l0.2,0.1
		c0.3,0.2,0.7,0.4,1.1,0.6c1.3,2.7,7.2,15.7,8.7,27.3C85.1,67,84.6,70.1,83,71.9z"/>
</g>
</svg>
